<svg width="32" height="32" viewBox="0 0 32 32" fill="#000" xmlns="http://www.w3.org/2000/svg">
<path d="M25.3333 2.66667C27.5387 2.66667 29.3333 4.46133 29.3333 6.66667V25.3333C29.3333 27.5387 27.5387 29.3333 25.3333 29.3333H6.66667C4.46133 29.3333 2.66667 27.5387 2.66667 25.3333V6.66667C2.66667 4.46133 4.46133 2.66667 6.66667 2.66667H25.3333ZM25.3333 0H6.66667C2.984 0 0 2.98533 0 6.66667V25.3333C0 29.0147 2.984 32 6.66667 32H25.3333C29.016 32 32 29.0147 32 25.3333V6.66667C32 2.98533 29.016 0 25.3333 0ZM13.3333 12H10.6667V14.6667H8V12H5.33333V9.33333H8V6.66667H10.6667V9.33333H13.3333V12ZM22.6667 6.66667C21.9293 6.66667 21.3333 7.264 21.3333 8C21.3333 8.736 21.9293 9.33333 22.6667 9.33333C23.404 9.33333 24 8.736 24 8C24 7.264 23.404 6.66667 22.6667 6.66667ZM22.6667 12C21.9293 12 21.3333 12.5973 21.3333 13.3333C21.3333 14.0693 21.9293 14.6667 22.6667 14.6667C23.404 14.6667 24 14.0693 24 13.3333C24 12.5973 23.404 12 22.6667 12ZM20 9.33333C19.2627 9.33333 18.6667 9.93067 18.6667 10.6667C18.6667 11.4027 19.2627 12 20 12C20.7373 12 21.3333 11.4027 21.3333 10.6667C21.3333 9.93067 20.7373 9.33333 20 9.33333ZM25.3333 9.33333C24.596 9.33333 24 9.93067 24 10.6667C24 11.4027 24.596 12 25.3333 12C26.0707 12 26.6667 11.4027 26.6667 10.6667C26.6667 9.93067 26.0707 9.33333 25.3333 9.33333ZM12 20C10.528 20 9.33333 21.1933 9.33333 22.6667C9.33333 24.14 10.528 25.3333 12 25.3333C13.472 25.3333 14.6667 24.14 14.6667 22.6667C14.6667 21.1933 13.472 20 12 20ZM20 20C18.528 20 17.3333 21.1933 17.3333 22.6667C17.3333 24.14 18.528 25.3333 20 25.3333C21.472 25.3333 22.6667 24.14 22.6667 22.6667C22.6667 21.1933 21.472 20 20 20Z"/>
</svg>
