<svg width="32" height="32" viewBox="0 0 32 32" fill="#000" xmlns="http://www.w3.org/2000/svg">
<path d="M22.1667 16.8547V20.8333H20.5027V17.5187C20.5027 16.8057 20.3125 16.2243 19.9679 15.8155C19.62 15.4026 19.1388 15.1981 18.6482 15.2176C17.6451 15.2574 16.8333 16.1753 16.8333 17.5187V20.8333H15.1667V13.8333H16.8333V14.7907L17.7734 15.0281C18.244 14.1559 19.352 13.6654 20.3378 13.8629C20.8154 13.9586 21.2603 14.2156 21.5914 14.6745C21.925 15.1369 22.1667 15.8381 22.1667 16.8547ZM29.8333 16C29.8333 8.37186 23.6281 2.16667 16 2.16667C8.37186 2.16667 2.16667 8.37186 2.16667 16C2.16667 23.6281 8.37186 29.8333 16 29.8333C23.6281 29.8333 29.8333 23.6281 29.8333 16ZM0.5 16C0.5 7.44014 7.44014 0.5 16 0.5C24.5599 0.5 31.5 7.44014 31.5 16C31.5 24.5599 24.5599 31.5 16 31.5C7.44014 31.5 0.5 24.5599 0.5 16ZM12.8333 10.6667C12.8333 11.1371 12.4573 11.5107 12 11.5107C11.5424 11.5107 11.1667 11.1381 11.1667 10.6667C11.1667 10.1962 11.5427 9.82267 12 9.82267C12.457 9.82267 12.8333 10.1973 12.8333 10.6667ZM11.1667 20.8333V13.8333H12.8333V20.8333H11.1667Z"/>
</svg>
